<svg width="25" height="25" viewBox="0 0 25 25" fill="none" xmlns="http://www.w3.org/2000/svg">
<path d="M11.2666 4.21777H4.2666C3.73617 4.21777 3.22746 4.42849 2.85239 4.80356C2.47732 5.17863 2.2666 5.68734 2.2666 6.21777V20.2178C2.2666 20.7482 2.47732 21.2569 2.85239 21.632C3.22746 22.0071 3.73617 22.2178 4.2666 22.2178H18.2666C18.797 22.2178 19.3057 22.0071 19.6808 21.632C20.0559 21.2569 20.2666 20.7482 20.2666 20.2178V13.2178" stroke="white" stroke-width="2" stroke-linecap="round" stroke-linejoin="round"/>
<path d="M18.7666 2.718C19.1644 2.32018 19.704 2.09668 20.2666 2.09668C20.8292 2.09668 21.3688 2.32018 21.7666 2.718C22.1644 3.11582 22.3879 3.65539 22.3879 4.218C22.3879 4.78061 22.1644 5.32018 21.7666 5.718L12.2666 15.218L8.2666 16.218L9.2666 12.218L18.7666 2.718Z" stroke="white" stroke-width="2" stroke-linecap="round" stroke-linejoin="round"/>
</svg>
