<svg width="25" height="25" viewBox="0 0 25 25" fill="none" xmlns="http://www.w3.org/2000/svg">
<path d="M3.2666 6.21777H5.2666H21.2666" stroke="white" stroke-width="2" stroke-linecap="round" stroke-linejoin="round"/>
<path d="M8.2666 6.21777V4.21777C8.2666 3.68734 8.47732 3.17863 8.85239 2.80356C9.22746 2.42849 9.73617 2.21777 10.2666 2.21777H14.2666C14.797 2.21777 15.3057 2.42849 15.6808 2.80356C16.0559 3.17863 16.2666 3.68734 16.2666 4.21777V6.21777M19.2666 6.21777V20.2178C19.2666 20.7482 19.0559 21.2569 18.6808 21.632C18.3057 22.0071 17.797 22.2178 17.2666 22.2178H7.2666C6.73617 22.2178 6.22746 22.0071 5.85239 21.632C5.47732 21.2569 5.2666 20.7482 5.2666 20.2178V6.21777H19.2666Z" stroke="white" stroke-width="2" stroke-linecap="round" stroke-linejoin="round"/>
</svg>
